<mxfile host="app.diagrams.net" modified="2023-11-02T12:02:42.045Z" agent="Mozilla/5.0 (Windows NT 10.0; Win64; x64) AppleWebKit/537.36 (KHTML, like Gecko) Chrome/118.0.0.0 Safari/537.36 Edg/118.0.2088.76" etag="BLH0F-htZTee32CqodBK" version="22.0.8" type="device">
  <diagram id="q-MbuWhYYtdjwNa4Wrbu" name="Page-1">
    <mxGraphModel dx="1167" dy="1710" grid="1" gridSize="10" guides="1" tooltips="1" connect="1" arrows="1" fold="1" page="1" pageScale="1" pageWidth="850" pageHeight="1100" math="0" shadow="0">
      <root>
        <mxCell id="0" />
        <mxCell id="1" parent="0" />
        <mxCell id="53" value="alt" style="shape=umlFrame;whiteSpace=wrap;html=1;" parent="1" vertex="1">
          <mxGeometry x="35" y="240" width="1575" height="598.5" as="geometry" />
        </mxCell>
        <mxCell id="2" value="Admin" style="shape=umlActor;verticalLabelPosition=bottom;verticalAlign=top;html=1;outlineConnect=0;" parent="1" vertex="1">
          <mxGeometry x="5" y="-21" width="30" height="60" as="geometry" />
        </mxCell>
        <mxCell id="3" value="" style="endArrow=none;dashed=1;html=1;dashPattern=1 3;strokeWidth=2;" parent="1" edge="1">
          <mxGeometry width="50" height="50" relative="1" as="geometry">
            <mxPoint x="20" y="860" as="sourcePoint" />
            <mxPoint x="20" y="70" as="targetPoint" />
          </mxGeometry>
        </mxCell>
        <mxCell id="4" value="Import Store Page" style="rounded=0;whiteSpace=wrap;html=1;" parent="1" vertex="1">
          <mxGeometry x="200" y="-6" width="120" height="60" as="geometry" />
        </mxCell>
        <mxCell id="6" value="" style="endArrow=none;dashed=1;html=1;dashPattern=1 3;strokeWidth=2;entryX=0.5;entryY=1;entryDx=0;entryDy=0;" parent="1" target="4" edge="1">
          <mxGeometry width="50" height="50" relative="1" as="geometry">
            <mxPoint x="260" y="850" as="sourcePoint" />
            <mxPoint x="259.52" y="130" as="targetPoint" />
          </mxGeometry>
        </mxCell>
        <mxCell id="7" value="1. When user click &lt;br&gt;&quot;Add&quot; button" style="endArrow=classic;html=1;entryX=-0.081;entryY=0.005;entryDx=0;entryDy=0;entryPerimeter=0;" parent="1" edge="1">
          <mxGeometry x="0.0237" width="50" height="50" relative="1" as="geometry">
            <mxPoint x="20" y="89" as="sourcePoint" />
            <mxPoint x="254.19000000000005" y="89.16500000000019" as="targetPoint" />
            <mxPoint as="offset" />
          </mxGeometry>
        </mxCell>
        <mxCell id="8" value="AdminController" style="rounded=0;whiteSpace=wrap;html=1;" parent="1" vertex="1">
          <mxGeometry x="455" y="-6" width="170" height="60" as="geometry" />
        </mxCell>
        <mxCell id="9" value="adDAO:AdminDAO" style="rounded=0;whiteSpace=wrap;html=1;" parent="1" vertex="1">
          <mxGeometry x="725" y="-6" width="210" height="60" as="geometry" />
        </mxCell>
        <mxCell id="10" value="ipDetailDAO:ImportDetailDAO" style="rounded=0;whiteSpace=wrap;html=1;" parent="1" vertex="1">
          <mxGeometry x="1009" y="-6" width="180" height="60" as="geometry" />
        </mxCell>
        <mxCell id="12" value="DB" style="shape=cylinder3;whiteSpace=wrap;html=1;boundedLbl=1;backgroundOutline=1;size=15;" parent="1" vertex="1">
          <mxGeometry x="1511" y="-16" width="80" height="80" as="geometry" />
        </mxCell>
        <mxCell id="13" value="" style="rounded=0;whiteSpace=wrap;html=1;" parent="1" vertex="1">
          <mxGeometry x="255" y="80" width="10" height="700" as="geometry" />
        </mxCell>
        <mxCell id="14" value="" style="endArrow=none;dashed=1;html=1;dashPattern=1 3;strokeWidth=2;entryX=0.5;entryY=1;entryDx=0;entryDy=0;" parent="1" target="8" edge="1">
          <mxGeometry width="50" height="50" relative="1" as="geometry">
            <mxPoint x="540" y="870" as="sourcePoint" />
            <mxPoint x="539.73" y="120" as="targetPoint" />
          </mxGeometry>
        </mxCell>
        <mxCell id="15" value="" style="endArrow=none;dashed=1;html=1;dashPattern=1 3;strokeWidth=2;entryX=0.5;entryY=1;entryDx=0;entryDy=0;" parent="1" target="9" edge="1">
          <mxGeometry width="50" height="50" relative="1" as="geometry">
            <mxPoint x="830" y="860" as="sourcePoint" />
            <mxPoint x="829.95" y="130" as="targetPoint" />
          </mxGeometry>
        </mxCell>
        <mxCell id="16" value="" style="endArrow=none;dashed=1;html=1;dashPattern=1 3;strokeWidth=2;entryX=0.5;entryY=1;entryDx=0;entryDy=0;" parent="1" target="10" edge="1">
          <mxGeometry width="50" height="50" relative="1" as="geometry">
            <mxPoint x="1099.6800000000003" y="880" as="sourcePoint" />
            <mxPoint x="1100" y="120" as="targetPoint" />
          </mxGeometry>
        </mxCell>
        <mxCell id="17" value="" style="endArrow=none;dashed=1;html=1;dashPattern=1 3;strokeWidth=2;entryX=0.5;entryY=1;entryDx=0;entryDy=0;entryPerimeter=0;" parent="1" target="12" edge="1">
          <mxGeometry width="50" height="50" relative="1" as="geometry">
            <mxPoint x="1552" y="430" as="sourcePoint" />
            <mxPoint x="1552" y="120" as="targetPoint" />
          </mxGeometry>
        </mxCell>
        <mxCell id="18" value="" style="rounded=0;whiteSpace=wrap;html=1;" parent="1" vertex="1">
          <mxGeometry x="535" y="90" width="10" height="690" as="geometry" />
        </mxCell>
        <mxCell id="19" value="2. doGet()" style="endArrow=classic;html=1;entryX=-0.023;entryY=0.005;entryDx=0;entryDy=0;entryPerimeter=0;" parent="1" edge="1">
          <mxGeometry x="-0.5929" width="50" height="50" relative="1" as="geometry">
            <mxPoint x="265" y="100.99999999999994" as="sourcePoint" />
            <mxPoint x="534.7700000000004" y="101.11500000000001" as="targetPoint" />
            <mxPoint as="offset" />
          </mxGeometry>
        </mxCell>
        <mxCell id="20" value="" style="rounded=0;whiteSpace=wrap;html=1;" parent="1" vertex="1">
          <mxGeometry x="825" y="157" width="10" height="213" as="geometry" />
        </mxCell>
        <mxCell id="21" value="4.&amp;nbsp;getAdmin()" style="endArrow=classic;html=1;exitX=1.245;exitY=0.057;exitDx=0;exitDy=0;exitPerimeter=0;" parent="1" source="Zld99kQidg25YX3PQMox-93" edge="1">
          <mxGeometry x="-0.1644" width="50" height="50" relative="1" as="geometry">
            <mxPoint x="558.76" y="165.20000000000005" as="sourcePoint" />
            <mxPoint x="825" y="165" as="targetPoint" />
            <mxPoint as="offset" />
          </mxGeometry>
        </mxCell>
        <mxCell id="22" value="" style="rounded=0;whiteSpace=wrap;html=1;" parent="1" vertex="1">
          <mxGeometry x="1545" y="170" width="10" height="62" as="geometry" />
        </mxCell>
        <mxCell id="23" value="5. executeQuery()" style="endArrow=classic;html=1;entryX=0;entryY=0;entryDx=0;entryDy=0;exitX=1.078;exitY=0.061;exitDx=0;exitDy=0;exitPerimeter=0;" parent="1" source="20" target="22" edge="1">
          <mxGeometry x="-0.6764" width="50" height="50" relative="1" as="geometry">
            <mxPoint x="850" y="170" as="sourcePoint" />
            <mxPoint x="1130" y="120" as="targetPoint" />
            <mxPoint as="offset" />
          </mxGeometry>
        </mxCell>
        <mxCell id="24" value="6. return Result" style="endArrow=classic;html=1;exitX=-0.026;exitY=0.941;exitDx=0;exitDy=0;exitPerimeter=0;dashed=1;entryX=1.089;entryY=0.346;entryDx=0;entryDy=0;entryPerimeter=0;" parent="1" source="22" target="20" edge="1">
          <mxGeometry x="0.6737" y="-2" width="50" height="50" relative="1" as="geometry">
            <mxPoint x="809.9999999999998" y="241.88300000000004" as="sourcePoint" />
            <mxPoint x="850" y="230" as="targetPoint" />
            <mxPoint as="offset" />
          </mxGeometry>
        </mxCell>
        <mxCell id="25" value="7. return null" style="endArrow=classic;html=1;exitX=-0.056;exitY=0.526;exitDx=0;exitDy=0;exitPerimeter=0;dashed=1;" parent="1" source="20" edge="1">
          <mxGeometry x="0.5357" width="50" height="50" relative="1" as="geometry">
            <mxPoint x="826.8000000000002" y="271.09900000000005" as="sourcePoint" />
            <mxPoint x="550" y="270" as="targetPoint" />
            <mxPoint as="offset" />
          </mxGeometry>
        </mxCell>
        <mxCell id="26" value="7.1 send back to Import Store page" style="endArrow=classic;html=1;exitX=-0.525;exitY=0.284;exitDx=0;exitDy=0;exitPerimeter=0;dashed=1;entryX=1.394;entryY=0.292;entryDx=0;entryDy=0;entryPerimeter=0;" parent="1" source="18" target="13" edge="1">
          <mxGeometry x="0.153" width="50" height="50" relative="1" as="geometry">
            <mxPoint x="529.7500000000002" y="286.09900000000005" as="sourcePoint" />
            <mxPoint x="270" y="286" as="targetPoint" />
            <mxPoint as="offset" />
          </mxGeometry>
        </mxCell>
        <mxCell id="27" value="7.2 send back to Import Store page" style="endArrow=classic;html=1;exitX=-0.27;exitY=0.311;exitDx=0;exitDy=0;exitPerimeter=0;dashed=1;" parent="1" source="13" edge="1">
          <mxGeometry x="-0.0227" width="50" height="50" relative="1" as="geometry">
            <mxPoint x="255.00000000000023" y="297.309" as="sourcePoint" />
            <mxPoint x="20" y="297" as="targetPoint" />
            <mxPoint x="-1" as="offset" />
          </mxGeometry>
        </mxCell>
        <mxCell id="28" value="8. return admin" style="endArrow=classic;html=1;exitX=-0.02;exitY=0.423;exitDx=0;exitDy=0;exitPerimeter=0;dashed=1;entryX=1.193;entryY=0.358;entryDx=0;entryDy=0;entryPerimeter=0;" parent="1" target="Zld99kQidg25YX3PQMox-93" edge="1">
          <mxGeometry x="0.1063" width="50" height="50" relative="1" as="geometry">
            <mxPoint x="824.7500000000002" y="360.309" as="sourcePoint" />
            <mxPoint x="560" y="360" as="targetPoint" />
            <mxPoint as="offset" />
          </mxGeometry>
        </mxCell>
        <mxCell id="30" value="9. getImportDetail()" style="endArrow=classic;html=1;exitX=1.341;exitY=0.452;exitDx=0;exitDy=0;exitPerimeter=0;entryX=0.046;entryY=0.084;entryDx=0;entryDy=0;entryPerimeter=0;" parent="1" source="Zld99kQidg25YX3PQMox-93" target="31" edge="1">
          <mxGeometry x="-0.5449" y="-1" width="50" height="50" relative="1" as="geometry">
            <mxPoint x="549.6999999999994" y="421.5999999999999" as="sourcePoint" />
            <mxPoint x="1090" y="420" as="targetPoint" />
            <mxPoint as="offset" />
            <Array as="points" />
          </mxGeometry>
        </mxCell>
        <mxCell id="31" value="" style="rounded=0;whiteSpace=wrap;html=1;" parent="1" vertex="1">
          <mxGeometry x="1094" y="411" width="10" height="129" as="geometry" />
        </mxCell>
        <mxCell id="51" value="21. send back to Import Store Page" style="endArrow=classic;html=1;dashed=1;exitX=-0.038;exitY=0.968;exitDx=0;exitDy=0;exitPerimeter=0;entryX=1.012;entryY=0.969;entryDx=0;entryDy=0;entryPerimeter=0;" parent="1" source="18" target="13" edge="1">
          <mxGeometry x="0.2217" width="50" height="50" relative="1" as="geometry">
            <mxPoint x="530" y="760" as="sourcePoint" />
            <mxPoint x="270" y="760" as="targetPoint" />
            <mxPoint as="offset" />
          </mxGeometry>
        </mxCell>
        <mxCell id="52" value="22. send back to Import Store Page" style="endArrow=classic;html=1;dashed=1;exitX=-0.062;exitY=0.984;exitDx=0;exitDy=0;exitPerimeter=0;" parent="1" source="13" edge="1">
          <mxGeometry width="50" height="50" relative="1" as="geometry">
            <mxPoint x="250" y="770" as="sourcePoint" />
            <mxPoint x="20" y="770" as="targetPoint" />
            <mxPoint as="offset" />
          </mxGeometry>
        </mxCell>
        <mxCell id="54" value="[Admin&amp;nbsp;is not Exist]" style="text;html=1;strokeColor=none;fillColor=none;align=center;verticalAlign=middle;whiteSpace=wrap;rounded=0;" parent="1" vertex="1">
          <mxGeometry x="4" y="248.5" width="185" height="30" as="geometry" />
        </mxCell>
        <mxCell id="57" value="[Else]" style="text;html=1;strokeColor=none;fillColor=none;align=center;verticalAlign=middle;whiteSpace=wrap;rounded=0;" parent="1" vertex="1">
          <mxGeometry x="35" y="320" width="55" height="30" as="geometry" />
        </mxCell>
        <mxCell id="58" value="" style="endArrow=none;dashed=1;html=1;rounded=0;exitX=0.001;exitY=0.122;exitDx=0;exitDy=0;exitPerimeter=0;entryX=1;entryY=0.112;entryDx=0;entryDy=0;entryPerimeter=0;" parent="1" source="53" target="53" edge="1">
          <mxGeometry width="50" height="50" relative="1" as="geometry">
            <mxPoint x="400" y="400" as="sourcePoint" />
            <mxPoint x="1390" y="310" as="targetPoint" />
          </mxGeometry>
        </mxCell>
        <mxCell id="Zld99kQidg25YX3PQMox-58" value="" style="endArrow=classic;html=1;rounded=0;entryX=0.07;entryY=0.12;entryDx=0;entryDy=0;entryPerimeter=0;" parent="1" target="38" edge="1">
          <mxGeometry width="50" height="50" relative="1" as="geometry">
            <mxPoint x="1110" y="440" as="sourcePoint" />
            <mxPoint x="1220" y="430" as="targetPoint" />
          </mxGeometry>
        </mxCell>
        <mxCell id="Zld99kQidg25YX3PQMox-60" value="10. executeQuery()" style="edgeLabel;html=1;align=center;verticalAlign=middle;resizable=0;points=[];" parent="Zld99kQidg25YX3PQMox-58" vertex="1" connectable="0">
          <mxGeometry x="0.2029" y="-1" relative="1" as="geometry">
            <mxPoint x="-273" as="offset" />
          </mxGeometry>
        </mxCell>
        <mxCell id="38" value="" style="rounded=0;whiteSpace=wrap;html=1;" parent="1" vertex="1">
          <mxGeometry x="1546" y="430" width="10" height="79" as="geometry" />
        </mxCell>
        <mxCell id="Zld99kQidg25YX3PQMox-59" value="" style="endArrow=none;dashed=1;html=1;dashPattern=1 3;strokeWidth=2;entryX=0.5;entryY=1;entryDx=0;entryDy=0;entryPerimeter=0;" parent="1" source="Zld99kQidg25YX3PQMox-70" target="38" edge="1">
          <mxGeometry width="50" height="50" relative="1" as="geometry">
            <mxPoint x="1551" y="870" as="sourcePoint" />
            <mxPoint x="1551" y="120" as="targetPoint" />
          </mxGeometry>
        </mxCell>
        <mxCell id="Zld99kQidg25YX3PQMox-62" value="11. return result" style="endArrow=classic;html=1;dashed=1;entryX=1.173;entryY=0.707;entryDx=0;entryDy=0;entryPerimeter=0;exitX=-0.114;exitY=0.931;exitDx=0;exitDy=0;exitPerimeter=0;" parent="1" source="38" edge="1">
          <mxGeometry x="0.6205" width="50" height="50" relative="1" as="geometry">
            <mxPoint x="1760" y="500" as="sourcePoint" />
            <mxPoint x="1104.73" y="502.203" as="targetPoint" />
            <mxPoint as="offset" />
          </mxGeometry>
        </mxCell>
        <mxCell id="Zld99kQidg25YX3PQMox-63" value="12. return import detail" style="endArrow=classic;html=1;exitX=-0.305;exitY=0.893;exitDx=0;exitDy=0;exitPerimeter=0;dashed=1;entryX=1.254;entryY=0.621;entryDx=0;entryDy=0;entryPerimeter=0;" parent="1" source="31" target="Zld99kQidg25YX3PQMox-93" edge="1">
          <mxGeometry x="0.4638" width="50" height="50" relative="1" as="geometry">
            <mxPoint x="834.7500000000002" y="370.309" as="sourcePoint" />
            <mxPoint x="550" y="530" as="targetPoint" />
            <mxPoint as="offset" />
          </mxGeometry>
        </mxCell>
        <mxCell id="Zld99kQidg25YX3PQMox-64" value="pdDAO: ProductDAO" style="rounded=0;whiteSpace=wrap;html=1;" parent="1" vertex="1">
          <mxGeometry x="1239" y="-6" width="180" height="60" as="geometry" />
        </mxCell>
        <mxCell id="Zld99kQidg25YX3PQMox-65" value="" style="endArrow=none;dashed=1;html=1;dashPattern=1 3;strokeWidth=2;entryX=0.5;entryY=1;entryDx=0;entryDy=0;" parent="1" source="Zld99kQidg25YX3PQMox-67" target="Zld99kQidg25YX3PQMox-64" edge="1">
          <mxGeometry width="50" height="50" relative="1" as="geometry">
            <mxPoint x="1329" y="880" as="sourcePoint" />
            <mxPoint x="1109" y="120" as="targetPoint" />
          </mxGeometry>
        </mxCell>
        <mxCell id="Zld99kQidg25YX3PQMox-66" value="13. getProduct()" style="endArrow=classic;html=1;exitX=1.004;exitY=0.732;exitDx=0;exitDy=0;exitPerimeter=0;entryX=-0.45;entryY=0.107;entryDx=0;entryDy=0;entryPerimeter=0;" parent="1" source="Zld99kQidg25YX3PQMox-93" target="Zld99kQidg25YX3PQMox-67" edge="1">
          <mxGeometry x="-0.5449" y="-1" width="50" height="50" relative="1" as="geometry">
            <mxPoint x="555" y="432" as="sourcePoint" />
            <mxPoint x="1320" y="610" as="targetPoint" />
            <mxPoint as="offset" />
            <Array as="points" />
          </mxGeometry>
        </mxCell>
        <mxCell id="Zld99kQidg25YX3PQMox-68" value="" style="endArrow=none;dashed=1;html=1;dashPattern=1 3;strokeWidth=2;entryX=0.5;entryY=1;entryDx=0;entryDy=0;" parent="1" target="Zld99kQidg25YX3PQMox-67" edge="1">
          <mxGeometry width="50" height="50" relative="1" as="geometry">
            <mxPoint x="1329" y="880" as="sourcePoint" />
            <mxPoint x="1329" y="110" as="targetPoint" />
          </mxGeometry>
        </mxCell>
        <mxCell id="Zld99kQidg25YX3PQMox-67" value="" style="rounded=0;whiteSpace=wrap;html=1;" parent="1" vertex="1">
          <mxGeometry x="1324" y="590" width="10" height="80" as="geometry" />
        </mxCell>
        <mxCell id="Zld99kQidg25YX3PQMox-69" value="" style="endArrow=classic;html=1;rounded=0;exitX=1;exitY=0.25;exitDx=0;exitDy=0;entryX=-0.176;entryY=0.189;entryDx=0;entryDy=0;entryPerimeter=0;" parent="1" source="Zld99kQidg25YX3PQMox-67" target="Zld99kQidg25YX3PQMox-70" edge="1">
          <mxGeometry width="50" height="50" relative="1" as="geometry">
            <mxPoint x="1550" y="670" as="sourcePoint" />
            <mxPoint x="1600" y="620" as="targetPoint" />
          </mxGeometry>
        </mxCell>
        <mxCell id="Zld99kQidg25YX3PQMox-72" value="14. executeUpdate()" style="edgeLabel;html=1;align=center;verticalAlign=middle;resizable=0;points=[];" parent="Zld99kQidg25YX3PQMox-69" vertex="1" connectable="0">
          <mxGeometry x="-0.2696" y="1" relative="1" as="geometry">
            <mxPoint x="-82" as="offset" />
          </mxGeometry>
        </mxCell>
        <mxCell id="Zld99kQidg25YX3PQMox-71" value="" style="endArrow=none;dashed=1;html=1;dashPattern=1 3;strokeWidth=2;entryX=0.5;entryY=1;entryDx=0;entryDy=0;entryPerimeter=0;" parent="1" target="Zld99kQidg25YX3PQMox-70" edge="1">
          <mxGeometry width="50" height="50" relative="1" as="geometry">
            <mxPoint x="1550" y="693" as="sourcePoint" />
            <mxPoint x="1551" y="509" as="targetPoint" />
          </mxGeometry>
        </mxCell>
        <mxCell id="Zld99kQidg25YX3PQMox-70" value="" style="rounded=0;whiteSpace=wrap;html=1;" parent="1" vertex="1">
          <mxGeometry x="1545" y="600" width="10" height="60" as="geometry" />
        </mxCell>
        <mxCell id="Zld99kQidg25YX3PQMox-73" value="" style="endArrow=classic;html=1;rounded=0;exitX=0.053;exitY=0.872;exitDx=0;exitDy=0;exitPerimeter=0;entryX=1;entryY=0.75;entryDx=0;entryDy=0;dashed=1;" parent="1" source="Zld99kQidg25YX3PQMox-70" target="Zld99kQidg25YX3PQMox-67" edge="1">
          <mxGeometry width="50" height="50" relative="1" as="geometry">
            <mxPoint x="1500" y="600" as="sourcePoint" />
            <mxPoint x="1550" y="550" as="targetPoint" />
          </mxGeometry>
        </mxCell>
        <mxCell id="Zld99kQidg25YX3PQMox-74" value="15. return result" style="edgeLabel;html=1;align=center;verticalAlign=middle;resizable=0;points=[];" parent="Zld99kQidg25YX3PQMox-73" vertex="1" connectable="0">
          <mxGeometry x="0.7263" relative="1" as="geometry">
            <mxPoint x="26" as="offset" />
          </mxGeometry>
        </mxCell>
        <mxCell id="Zld99kQidg25YX3PQMox-85" value="" style="endArrow=none;dashed=1;html=1;dashPattern=1 3;strokeWidth=2;" parent="1" edge="1">
          <mxGeometry width="50" height="50" relative="1" as="geometry">
            <mxPoint x="1551" y="870" as="sourcePoint" />
            <mxPoint x="1550" y="690" as="targetPoint" />
          </mxGeometry>
        </mxCell>
        <mxCell id="Zld99kQidg25YX3PQMox-93" value="" style="rounded=0;whiteSpace=wrap;html=1;" parent="1" vertex="1">
          <mxGeometry x="542" y="130" width="10" height="640" as="geometry" />
        </mxCell>
        <mxCell id="Zld99kQidg25YX3PQMox-95" value="" style="endArrow=classic;html=1;rounded=0;exitX=-0.255;exitY=0.896;exitDx=0;exitDy=0;exitPerimeter=0;entryX=0.931;entryY=0.833;entryDx=0;entryDy=0;entryPerimeter=0;dashed=1;" parent="1" source="Zld99kQidg25YX3PQMox-67" target="Zld99kQidg25YX3PQMox-93" edge="1">
          <mxGeometry width="50" height="50" relative="1" as="geometry">
            <mxPoint x="1100" y="750" as="sourcePoint" />
            <mxPoint x="1150" y="700" as="targetPoint" />
          </mxGeometry>
        </mxCell>
        <mxCell id="Zld99kQidg25YX3PQMox-96" value="16. return product" style="edgeLabel;html=1;align=center;verticalAlign=middle;resizable=0;points=[];" parent="Zld99kQidg25YX3PQMox-95" vertex="1" connectable="0">
          <mxGeometry x="0.6741" y="-1" relative="1" as="geometry">
            <mxPoint as="offset" />
          </mxGeometry>
        </mxCell>
        <mxCell id="Zld99kQidg25YX3PQMox-97" value="" style="endArrow=classic;html=1;rounded=0;entryX=1.194;entryY=0.033;entryDx=0;entryDy=0;entryPerimeter=0;exitX=1.183;exitY=0.033;exitDx=0;exitDy=0;exitPerimeter=0;" parent="1" source="18" target="Zld99kQidg25YX3PQMox-93" edge="1">
          <mxGeometry width="50" height="50" relative="1" as="geometry">
            <mxPoint x="350" y="130" as="sourcePoint" />
            <mxPoint x="400" y="80" as="targetPoint" />
            <Array as="points">
              <mxPoint x="580" y="113" />
              <mxPoint x="580" y="150" />
            </Array>
          </mxGeometry>
        </mxCell>
        <mxCell id="Zld99kQidg25YX3PQMox-98" value="3. bringToStock()" style="edgeLabel;html=1;align=center;verticalAlign=middle;resizable=0;points=[];" parent="Zld99kQidg25YX3PQMox-97" vertex="1" connectable="0">
          <mxGeometry x="0.0439" y="-1" relative="1" as="geometry">
            <mxPoint x="41" as="offset" />
          </mxGeometry>
        </mxCell>
        <mxCell id="lEbRbyiGPAEYIdbsUyGK-61" value="" style="endArrow=classic;html=1;rounded=0;exitX=0.976;exitY=0.873;exitDx=0;exitDy=0;exitPerimeter=0;entryX=-0.223;entryY=0.187;entryDx=0;entryDy=0;entryPerimeter=0;" edge="1" parent="1" source="Zld99kQidg25YX3PQMox-93" target="lEbRbyiGPAEYIdbsUyGK-62">
          <mxGeometry width="50" height="50" relative="1" as="geometry">
            <mxPoint x="550" y="700" as="sourcePoint" />
            <mxPoint x="600" y="650" as="targetPoint" />
          </mxGeometry>
        </mxCell>
        <mxCell id="lEbRbyiGPAEYIdbsUyGK-63" value="17. updateProduct" style="edgeLabel;html=1;align=center;verticalAlign=middle;resizable=0;points=[];" vertex="1" connectable="0" parent="lEbRbyiGPAEYIdbsUyGK-61">
          <mxGeometry x="-0.7475" relative="1" as="geometry">
            <mxPoint as="offset" />
          </mxGeometry>
        </mxCell>
        <mxCell id="lEbRbyiGPAEYIdbsUyGK-62" value="" style="rounded=0;whiteSpace=wrap;html=1;" vertex="1" parent="1">
          <mxGeometry x="1325" y="679" width="10" height="60" as="geometry" />
        </mxCell>
        <mxCell id="lEbRbyiGPAEYIdbsUyGK-64" value="" style="rounded=0;whiteSpace=wrap;html=1;" vertex="1" parent="1">
          <mxGeometry x="1544" y="687" width="10" height="39" as="geometry" />
        </mxCell>
        <mxCell id="lEbRbyiGPAEYIdbsUyGK-65" value="" style="endArrow=classic;html=1;rounded=0;entryX=0;entryY=0.25;entryDx=0;entryDy=0;exitX=1;exitY=0.25;exitDx=0;exitDy=0;" edge="1" parent="1" source="lEbRbyiGPAEYIdbsUyGK-62" target="lEbRbyiGPAEYIdbsUyGK-64">
          <mxGeometry width="50" height="50" relative="1" as="geometry">
            <mxPoint x="1340" y="700" as="sourcePoint" />
            <mxPoint x="1570" y="580" as="targetPoint" />
          </mxGeometry>
        </mxCell>
        <mxCell id="lEbRbyiGPAEYIdbsUyGK-66" value="18. executeUpdate()" style="edgeLabel;html=1;align=center;verticalAlign=middle;resizable=0;points=[];" vertex="1" connectable="0" parent="lEbRbyiGPAEYIdbsUyGK-65">
          <mxGeometry x="-0.6818" relative="1" as="geometry">
            <mxPoint as="offset" />
          </mxGeometry>
        </mxCell>
        <mxCell id="lEbRbyiGPAEYIdbsUyGK-67" value="" style="endArrow=classic;html=1;rounded=0;exitX=0;exitY=0.75;exitDx=0;exitDy=0;entryX=0.902;entryY=0.616;entryDx=0;entryDy=0;entryPerimeter=0;dashed=1;" edge="1" parent="1" source="lEbRbyiGPAEYIdbsUyGK-64" target="lEbRbyiGPAEYIdbsUyGK-62">
          <mxGeometry width="50" height="50" relative="1" as="geometry">
            <mxPoint x="1510" y="740" as="sourcePoint" />
            <mxPoint x="1560" y="690" as="targetPoint" />
          </mxGeometry>
        </mxCell>
        <mxCell id="lEbRbyiGPAEYIdbsUyGK-68" value="19. return result" style="edgeLabel;html=1;align=center;verticalAlign=middle;resizable=0;points=[];" vertex="1" connectable="0" parent="lEbRbyiGPAEYIdbsUyGK-67">
          <mxGeometry x="0.7006" y="1" relative="1" as="geometry">
            <mxPoint as="offset" />
          </mxGeometry>
        </mxCell>
        <mxCell id="lEbRbyiGPAEYIdbsUyGK-69" value="" style="endArrow=classic;html=1;rounded=0;exitX=0.015;exitY=0.865;exitDx=0;exitDy=0;exitPerimeter=0;entryX=0.977;entryY=0.94;entryDx=0;entryDy=0;entryPerimeter=0;dashed=1;" edge="1" parent="1" source="lEbRbyiGPAEYIdbsUyGK-62" target="Zld99kQidg25YX3PQMox-93">
          <mxGeometry width="50" height="50" relative="1" as="geometry">
            <mxPoint x="1130" y="700" as="sourcePoint" />
            <mxPoint x="1180" y="650" as="targetPoint" />
          </mxGeometry>
        </mxCell>
        <mxCell id="lEbRbyiGPAEYIdbsUyGK-70" value="20. return update status" style="edgeLabel;html=1;align=center;verticalAlign=middle;resizable=0;points=[];" vertex="1" connectable="0" parent="lEbRbyiGPAEYIdbsUyGK-69">
          <mxGeometry x="0.6992" y="1" relative="1" as="geometry">
            <mxPoint as="offset" />
          </mxGeometry>
        </mxCell>
      </root>
    </mxGraphModel>
  </diagram>
</mxfile>
